<?xml version="1.0" encoding="UTF-8" standalone="no"?>
<!-- Created with Inkscape (http://www.inkscape.org/) -->

<svg
   width="135.467mm"
   height="135.467mm"
   viewBox="0 0 135.467 135.467"
   version="1.1"
   id="svg1"
   xml:space="preserve"
   xmlns="http://www.w3.org/2000/svg"
   xmlns:svg="http://www.w3.org/2000/svg"><defs
     id="defs1" /><g
     id="g1"
     transform="matrix(1.3466313,0,0,1.3466313,-24.340041,-23.169765)"
     style="fill:#999999"><path
       style="display:inline;fill:#4d4d4d;fill-opacity:1;stroke-width:0.415922"
       d="m 73.506295,26.723429 c -3.593529,0.143737 -7.263633,-0.178827 -10.787639,0.677406 1.596756,1.436773 5.477679,2.195126 5.582534,5.111764 1.184884,4.67e-4 1.889353,-1.777622 3.179678,-2.003817 4.365471,-1.564216 9.530588,-2.459546 13.909566,-0.553281 6.13677,3.049868 7.085118,11.104545 5.11726,16.984592 -2.064562,6.606204 -7.736268,12.070036 -14.384611,14.028351 -5.169952,0.619727 -10.240207,-1.126564 -15.320856,-1.684182 0.394782,2.134728 2.935385,3.272741 5.015239,3.342244 11.599643,1.701198 23.977036,-0.982503 33.656597,-7.628143 4.904617,-3.254894 8.733447,-9.861456 5.847727,-15.629783 C 101.40983,31.993987 92.887143,28.810441 85.199282,27.034145 81.324281,26.568607 77.400291,26.779693 73.506295,26.723429 Z"
       id="path6" /><path
       style="display:inline;fill:#999999;fill-opacity:1;stroke-width:0.415922"
       d="m 56.31212,25.651753 c -1.901466,0.281725 -0.449053,2.740681 -0.185461,3.780484 0.952924,4.691096 0.710834,9.611274 0.151299,14.339874 -4.949493,22.494799 -13.912528,44.751718 -29.748114,61.898319 -0.956125,1.46756 -2.844985,2.70528 -3.294021,4.35425 1.534468,0.52835 3.071425,-1.31 4.425777,-1.90495 9.855994,-6.83575 17.101164,-16.80043 22.263547,-27.497134 3.468456,-6.315724 6.058741,-13.063942 9.211184,-19.513802 8.433826,14.073096 16.112464,28.634638 25.347138,42.208366 4.085714,5.52849 11.663623,5.53964 17.872571,6.07879 3.39424,-0.059 7.14244,0.64606 10.32481,-0.73257 0.26696,-1.22594 -1.92822,-1.61556 -2.65177,-2.33725 C 101.19346,101.77844 92.37823,96.789528 85.601234,89.377913 76.400061,79.611317 68.153017,68.990496 60.243402,58.16959 62.697672,49.539725 65.296638,40.942946 68.30119,32.512599 68.927524,29.443232 64.985245,28.400776 62.883784,27.377307 60.770159,26.618049 58.577592,25.752312 56.31212,25.651753 Z"
       id="path7" /></g></svg>
