<?xml version="1.0" encoding="UTF-8" standalone="no"?>
<!-- Created with Inkscape (http://www.inkscape.org/) -->

<svg
   width="240mm"
   height="84.999992mm"
   viewBox="0 0 240 84.999993"
   version="1.1"
   id="svg1"
   xml:space="preserve"
   xmlns="http://www.w3.org/2000/svg"
   xmlns:svg="http://www.w3.org/2000/svg"><defs
     id="defs1" /><g
     id="layer1"
     style="display:inline"><path
       d="M 30.149694,59.388218 H 26.18463 v -3.916112 q -4.356674,4.797237 -10.035037,4.797237 -5.678362,0 -9.7413287,-4.160869 -4.0140149,-4.20982 -4.0140149,-9.986086 0,-5.825216 4.0629663,-9.937134 4.0629663,-4.160869 9.8881833,-4.160869 5.874168,0 9.839231,4.748286 v -4.062966 h 3.965064 z M 16.443301,56.500085 q 4.062967,0 7.000051,-2.937084 2.937084,-2.937084 2.937084,-7.293758 0,-4.405626 -2.888133,-7.34271 -2.888132,-2.986036 -7.097953,-2.986036 -4.160869,0 -7.0490016,3.083938 -2.8881327,3.034987 -2.8881327,7.195856 0,4.160869 2.9370841,7.244808 2.9370842,3.034986 7.0490012,3.034986 z m 24.084117,2.888133 h -4.014015 v -36.71355 h 4.014015 z m 32.846427,0 h -3.965063 v -3.916112 q -4.356675,4.797237 -10.035037,4.797237 -5.678363,0 -9.741329,-4.160869 -4.014015,-4.20982 -4.014015,-9.986086 0,-5.825216 4.062966,-9.937134 4.062967,-4.160869 9.888183,-4.160869 5.874168,0 9.839232,4.748286 v -4.062966 h 3.965063 z M 59.667453,56.500085 q 4.062966,0 7.00005,-2.937084 2.937084,-2.937084 2.937084,-7.293758 0,-4.405626 -2.888132,-7.34271 -2.888133,-2.986036 -7.097953,-2.986036 -4.160869,0 -7.049002,3.083938 -2.888133,3.034987 -2.888133,7.195856 0,4.160869 2.937084,7.244808 2.937084,3.034986 7.049002,3.034986 z m 24.76944,-19.874268 q 4.160869,-4.601432 9.986086,-4.601432 5.825221,0 9.790281,4.160869 4.01401,4.111918 4.01401,9.937134 0,5.825217 -4.06296,9.986086 -4.06297,4.160869 -9.839234,4.160869 -5.727314,0 -9.888183,-4.993043 v 4.111918 H 80.47183 v -36.71355 h 3.965063 z m 9.741329,19.727414 q 4.160869,0 7.048998,-3.083938 2.93709,-3.083938 2.93709,-7.195856 0,-4.160869 -2.83918,-7.244807 -2.839185,-3.083938 -7.097957,-3.083938 -4.258772,0 -7.146904,2.888132 -2.839182,2.888133 -2.839182,7.293759 0,4.356675 2.888133,7.391661 2.888133,3.034987 7.049002,3.034987 z M 126.2903,32.024385 q 5.77626,0 9.79028,4.160869 4.06296,4.160869 4.06296,9.986086 0,5.825217 -4.01401,9.986086 -3.96507,4.111917 -9.83923,4.111917 -5.87417,0 -9.88819,-4.111917 -4.01401,-4.160869 -4.01401,-9.986086 0,-5.825217 4.01401,-9.986086 4.06297,-4.160869 9.88819,-4.160869 z m 0,24.377798 q 4.06296,0 6.90214,-2.937084 2.88814,-2.986036 2.88814,-7.146905 0,-4.20982 -2.93709,-7.244807 -2.88813,-3.083938 -6.90214,-3.083938 -3.96507,0 -6.8532,3.083938 -2.88813,3.034987 -2.88813,7.244807 0,4.209821 2.79023,7.146905 2.79023,2.937084 7.00005,2.937084 z m 82.38523,-9.643426 h -23.39876 q 0.24475,4.405626 2.93708,7.097953 2.74128,2.643375 6.51054,2.643375 6.41263,0 9.79028,-6.31473 l 3.42659,1.76225 q -2.30071,4.258772 -5.4336,6.314731 -3.13289,2.007007 -7.48957,2.007007 -6.02102,0 -9.93713,-4.111917 -3.91611,-4.160869 -3.91611,-9.986086 0,-5.825217 3.91611,-9.986086 3.96506,-4.160869 9.79028,-4.160869 5.82522,0 9.74133,3.965064 3.91611,3.916112 4.06296,10.769308 z m -4.50352,-3.573453 q -0.73428,-3.426598 -3.3287,-5.335702 -2.59442,-1.909105 -5.97207,-1.909105 -6.8532,0 -9.10496,7.244807 z m 33.43378,16.202914 h -4.01401 V 46.660854 q 0,-4.405626 -0.44057,-5.972071 -0.39161,-1.615396 -1.22378,-2.692327 -0.78322,-1.125882 -2.05596,-1.664348 -1.22378,-0.538465 -3.03499,-0.538465 -1.76225,0 -3.47555,0.881125 -1.71329,0.881125 -2.93708,2.44757 -1.22378,1.566445 -1.7133,3.328695 -0.44056,1.762251 -0.44056,7.049002 v 9.888183 h -4.06297 V 32.709705 h 4.06297 v 4.014015 q 3.96506,-4.699335 9.39867,-4.699335 2.88813,0 5.2378,1.517493 2.34966,1.468543 3.5245,4.111918 1.17483,2.594424 1.17483,8.02803 z"
       id="text3"
       style="font-size:48.9514px;font-family:'Heiti SC';-inkscape-font-specification:'Heiti SC, Normal';fill:#34495e;stroke-width:0.133503"
       aria-label="alabo   en" /><path
       style="fill:#34495e;fill-opacity:1;stroke-width:0.306663"
       d="m 160.22878,16.068057 c -2.64602,0.10612 -5.34842,-0.13203 -7.94325,0.50012 1.17574,1.06076 4.03338,1.62064 4.11058,3.77397 0.87247,3.5e-4 1.39119,-1.3124 2.34129,-1.4794 3.21442,-1.15485 7.01764,-1.81586 10.24202,-0.40848 4.51868,2.25169 5.21698,8.19839 3.76798,12.53957 -1.5202,4.877307 -5.69644,8.911206 -10.5918,10.357013 -3.80679,0.457539 -7.54016,-0.831733 -11.28119,-1.243417 0.29069,1.576051 2.16141,2.416236 3.69287,2.467549 8.54115,1.25598 17.65498,-0.725374 24.78232,-5.631791 3.6114,-2.403064 6.43068,-7.280624 4.30584,-11.539334 -2.88048,-5.4446 -9.15598,-7.79498 -14.81678,-9.1064 -2.85327,-0.34371 -5.74262,-0.18786 -8.60988,-0.2294 z"
       id="path6" /><path
       style="fill:#e67e22;fill-opacity:1;stroke-width:0.306663"
       d="m 147.56822,15.276847 c -1.4001,0.20799 -0.33065,2.02342 -0.13656,2.7911 0.70166,3.46339 0.52341,7.09592 0.11141,10.587 -3.64446,16.607715 -10.2442,33.039792 -21.90439,45.698986 -0.70403,1.083487 -2.09485,1.997286 -2.42548,3.214708 1.12987,0.39007 2.26157,-0.967168 3.25882,-1.406408 7.25725,-5.046776 12.59208,-12.403609 16.39329,-20.300892 2.55392,-4.662847 4.46122,-9.644996 6.78246,-14.406872 6.21006,10.390045 11.86407,21.140698 18.66382,31.162067 3.00843,4.081634 8.58826,4.089873 13.16009,4.48792 2.49927,-0.04348 5.25918,0.476978 7.60245,-0.54085 0.19657,-0.905108 -1.41981,-1.192755 -1.95258,-1.725571 -6.50591,-3.357528 -12.99681,-7.040787 -17.98692,-12.512733 -6.77508,-7.210583 -12.84762,-15.051841 -18.67169,-23.040821 1.80714,-6.371354 3.72084,-12.718284 5.93317,-18.942334 0.46119,-2.26609 -2.44162,-3.03572 -3.98899,-3.79134 -1.55632,-0.56055 -3.17077,-1.19972 -4.8389,-1.27396 z"
       id="path7" /></g></svg>
