<?xml version="1.0" encoding="UTF-8" standalone="no"?>
<!-- Created with Inkscape (http://www.inkscape.org/) -->

<svg
   width="135.467mm"
   height="135.467mm"
   viewBox="0 0 135.467 135.467"
   version="1.1"
   id="svg1"
   xml:space="preserve"
   xmlns="http://www.w3.org/2000/svg"
   xmlns:svg="http://www.w3.org/2000/svg"><defs
     id="defs1" /><g
     id="layer1"><g
       id="whatsapp"
       style="fill:none;fill-rule:evenodd;stroke:none;stroke-width:1"
       transform="matrix(2.2565953,0,0,2.2565953,0.19861009,0.27010146)"><path
         d="m 29.927856,-0.11954827 c -16.577237,0 -30.01571998,13.43848327 -30.01571998,30.01572027 0,16.577237 13.43848298,30.01572 30.01571998,30.01572 16.577237,0 30.015717,-13.438483 30.015717,-30.01572 0,-16.577237 -13.43848,-30.01572027 -30.015717,-30.01572027 z M 46.487743,39.808512 c -0.92263,0.535007 -3.04249,1.027335 -3.68619,1.027335 -0.6437,0 -0.68239,0.706307 -0.6437,1.198518 0.0387,0.492211 -0.19733,1.219975 -1.57055,0.89883 -1.373216,-0.321144 -2.945641,-0.552594 -4.222599,0.214097 -0.926266,0.556463 -2.978122,2.825698 -6.436965,2.825698 -3.458843,0 -5.509995,-2.268649 -6.436965,-2.825698 -1.276958,-0.766691 -2.849149,-0.535007 -4.22272,-0.214097 -1.37357,0.320911 -1.609241,-0.406619 -1.570431,-0.89883 0.03881,-0.492211 0,-1.198518 -0.643814,-1.198518 -0.643814,0 -2.763557,-0.492446 -3.686189,-1.027335 -0.922631,-0.53489 -0.819569,-1.541002 0.160866,-1.541002 0.980435,0 1.963333,-0.321028 4.40938,-2.568338 2.446046,-2.24731 2.553212,-4.494502 2.553212,-4.77203 0,-0.277528 -0.877022,-1.09874 -2.403603,-1.369819 a 2.9570174,2.9570174 0 0 1 -1.630463,-0.944909 1.0837317,1.0837317 0 0 1 0.152423,-1.615807 1.5542515,1.5542515 0 0 1 1.65321,-0.107869 c 1.180579,0.635137 2.652639,0.464071 2.652639,0.464071 A 42.201047,42.201047 0 0 1 20.64057,22.216251 c 0.04291,-2.567751 1.845146,-8.346949 9.286114,-8.346949 7.440967,0 9.243435,5.778729 9.286113,8.346949 a 42.201047,42.201047 0 0 1 -0.274714,5.136558 c 0,0 1.47194,0.171066 2.65252,-0.464071 a 1.5542515,1.5542515 0 0 1 1.65321,0.107869 1.0837317,1.0837317 0 0 1 0.15243,1.615807 2.9565484,2.9565484 0 0 1 -1.63047,0.944909 c -1.52611,0.271079 -2.403601,1.091587 -2.403601,1.369819 0,0.278231 0.1074,2.525424 2.553331,4.77203 2.44593,2.246607 3.43058,2.568572 4.41137,2.568572 0.98079,0 1.0835,1.005644 0.16087,1.540768 z"
         id="path1"
         style="fill:#34495e;fill-opacity:1;stroke-width:0.117249" /></g></g></svg>
