<?xml version="1.0" encoding="UTF-8" standalone="no"?>
<!-- Created with Inkscape (http://www.inkscape.org/) -->

<svg
   width="135.467mm"
   height="135.467mm"
   viewBox="0 0 135.467 135.467"
   version="1.1"
   id="svg1"
   xml:space="preserve"
   xmlns="http://www.w3.org/2000/svg"
   xmlns:svg="http://www.w3.org/2000/svg"><defs
     id="defs1" /><g
     id="layer1"><path
       d="M 67.73366,3.2693926e-4 C 30.325546,3.2693926e-4 3.2693926e-4,30.325546 3.2693926e-4,67.73366 3.2693926e-4,105.14178 30.325546,135.467 67.73366,135.467 105.14178,135.467 135.467,105.14178 135.467,67.73366 135.467,30.325546 105.14178,3.2693926e-4 67.73366,3.2693926e-4 Z M 102.93886,42.845894 90.908779,100.27741 a 4.2351854,4.2351854 0 0 1 -6.661415,2.53815 L 66.748881,89.887752 56.147556,99.889002 a 1.4364229,1.4364229 0 0 1 -2.047875,-0.07779 L 53.871875,99.560919 55.713904,81.734617 88.914879,51.399873 a 0.88847083,0.88847083 0 0 0 -1.074473,-1.40679 L 45.380337,76.866812 27.09366,70.725304 a 2.4852312,2.4852312 0 0 1 -0.08467,-4.681537 l 71.548621,-26.95284 a 3.2916812,3.2916812 0 0 1 4.381239,3.754967 z"
       id="path1"
       style="fill:#34495e;fill-opacity:1;stroke-width:0.264583" /></g></svg>
