<?xml version="1.0" encoding="UTF-8" standalone="no"?>
<!-- Created with Inkscape (http://www.inkscape.org/) -->

<svg
   width="135.467mm"
   height="135.467mm"
   viewBox="0 0 135.467 135.467"
   version="1.1"
   id="svg1"
   xml:space="preserve"
   xmlns="http://www.w3.org/2000/svg"
   xmlns:svg="http://www.w3.org/2000/svg"><defs
     id="defs1" /><g
     id="layer1"><path
       d="M 67.733663,3.2323926e-4 C 30.325549,3.2323926e-4 3.3023926e-4,30.325543 3.3023926e-4,67.733656 3.3023926e-4,105.14177 30.325549,135.467 67.733663,135.467 105.14178,135.467 135.467,105.14177 135.467,67.733656 135.467,30.325543 105.14178,3.2323926e-4 67.733663,3.2323926e-4 Z M 102.02895,61.484727 c -7.192425,0 -14.190655,-2.334154 -19.579165,-6.283854 l -0.0429,26.855208 A 24.462581,24.462581 0 1 1 61.193163,57.788233 V 70.97639 a 11.550915,11.550915 0 1 0 8.278284,11.079691 V 28.928014 h 13.566508 a 18.98994,18.98994 0 0 0 18.990205,18.989938 z"
       id="path1"
       style="fill:#34495e;fill-opacity:1;stroke-width:0.264583" /></g></svg>
