<?xml version="1.0" encoding="UTF-8" standalone="no"?>
<!-- Created with Inkscape (http://www.inkscape.org/) -->

<svg
   width="135.467mm"
   height="135.467mm"
   viewBox="0 0 135.467 135.467"
   version="1.1"
   id="svg1"
   xml:space="preserve"
   sodipodi:docname="twitter.svg"
   inkscape:version="1.4.2 (ebf0e940, 2025-05-08)"
   inkscape:export-filename="twitter.svg"
   inkscape:export-xdpi="96"
   inkscape:export-ydpi="96"
   xmlns:inkscape="http://www.inkscape.org/namespaces/inkscape"
   xmlns:sodipodi="http://sodipodi.sourceforge.net/DTD/sodipodi-0.dtd"
   xmlns="http://www.w3.org/2000/svg"
   xmlns:svg="http://www.w3.org/2000/svg"><sodipodi:namedview
     id="namedview1"
     pagecolor="#ffffff"
     bordercolor="#000000"
     borderopacity="0.25"
     inkscape:showpageshadow="2"
     inkscape:pageopacity="0.0"
     inkscape:pagecheckerboard="0"
     inkscape:deskcolor="#d1d1d1"
     inkscape:document-units="mm"
     inkscape:zoom="1.1209935"
     inkscape:cx="222.57043"
     inkscape:cy="180.1973"
     inkscape:window-width="1712"
     inkscape:window-height="1387"
     inkscape:window-x="2560"
     inkscape:window-y="25"
     inkscape:window-maximized="0"
     inkscape:current-layer="layer1" /><defs
     id="defs1" /><g
     id="layer1"
     transform="translate(-25.495119,-28.796883)"><g
       style="clip-rule:evenodd;fill-rule:evenodd;stroke-linejoin:round;stroke-miterlimit:2;fill:#34495e;fill-opacity:1"
       id="g2"
       transform="matrix(0.26458333,0,0,0.26458333,25.495449,28.797213)"><path
         d="M 256,0 C 397.29,0 512,114.71 512,256 512,397.29 397.29,512 256,512 114.71,512 0,397.29 0,256 0,114.71 114.71,0 256,0 Z m -45.091,392.158 c 113.283,0 175.224,-93.87 175.224,-175.223 0,-2.682 0,-5.364 -0.128,-7.919 12.005,-8.684 22.478,-19.54 30.779,-31.928 -10.983,4.853 -22.861,8.174 -35.377,9.706 12.772,-7.663 22.478,-19.668 27.076,-34.099 -11.878,7.024 -25.032,12.132 -39.081,14.942 -11.239,-12.005 -27.203,-19.412 -44.955,-19.412 -33.972,0 -61.558,27.586 -61.558,61.558 0,4.853 0.511,9.578 1.66,14.048 -51.213,-2.554 -96.552,-27.075 -126.947,-64.368 -5.237,9.068 -8.302,19.668 -8.302,30.907 0,21.328 10.856,40.23 27.459,51.213 -10.09,-0.255 -19.541,-3.065 -27.842,-7.662 v 0.766 c 0,29.885 21.2,54.661 49.425,60.409 -5.108,1.404 -10.6,2.171 -16.219,2.171 -3.96,0 -7.791,-0.383 -11.622,-1.15 7.79,24.521 30.523,42.274 57.471,42.784 -21.073,16.476 -47.637,26.31 -76.501,26.31 -4.981,0 -9.834,-0.256 -14.687,-0.894 26.948,17.624 59.387,27.841 94.125,27.841 z"
         id="path1"
         style="fill:#34495e;fill-opacity:1" /></g></g></svg>
