<?xml version="1.0" encoding="UTF-8" standalone="no"?>
<!-- Created with Inkscape (http://www.inkscape.org/) -->

<svg
   width="135.467mm"
   height="135.467mm"
   viewBox="0 0 135.467 135.467"
   version="1.1"
   id="svg1"
   xml:space="preserve"
   xmlns="http://www.w3.org/2000/svg"
   xmlns:svg="http://www.w3.org/2000/svg"><defs
     id="defs1" /><g
     id="layer1"><g
       id="g5"
       transform="matrix(2.7502549,0,0,2.7502549,-10.469505,-10.788975)"
       style="fill:#34495e;fill-opacity:1"><path
         d="m 30.2095,29.7295 c -0.6036,-0.0027 -1.1092,0.5151 -1.0882,1.1149 0.0198,0.573 0.5025,1.0365 1.0806,1.0372 0.5822,6e-4 1.0616,-0.4551 1.0837,-1.03 0.0232,-0.6089 -0.4664,-1.1197 -1.0761,-1.1221 z"
         id="path1"
         style="fill:#34495e;fill-opacity:1" /><path
         d="m 19.5497,21.4479 c -0.7269,-0.0214 -1.3248,0.5342 -1.346,1.2505 -0.0215,0.726 0.5338,1.3077 1.266,1.3263 0.7258,0.0184 1.3343,-0.5378 1.3611,-1.2448 0.0266,-0.6898 -0.5711,-1.3113 -1.2811,-1.332 z"
         id="path2"
         style="fill:#34495e;fill-opacity:1" /><path
         d="m 27.8005,24.0306 c 0.7347,-0.0089 1.2919,-0.5764 1.2849,-1.3094 -0.006,-0.7195 -0.5941,-1.2871 -1.3193,-1.2739 -0.7126,0.0131 -1.3148,0.6201 -1.3021,1.3126 0.0131,0.7179 0.6037,1.2795 1.3365,1.2707 z"
         id="path3"
         style="fill:#34495e;fill-opacity:1" /><path
         d="m 36.9129,29.7319 c -0.5649,-0.0039 -1.0449,0.4585 -1.0679,1.0293 -0.0245,0.6104 0.45,1.1116 1.054,1.1132 0.5842,0.0018 1.0458,-0.4399 1.0671,-1.0214 0.0227,-0.6118 -0.452,-1.1169 -1.0532,-1.1211 z"
         id="path4"
         style="fill:#34495e;fill-opacity:1" /><path
         d="m 28.4389,3.9229 c -13.5995,0 -24.625,11.0234 -24.625,24.623 0,13.5997 11.0255,24.625 24.625,24.625 13.5986,0 24.624,-11.0253 24.624,-24.625 0,-13.5996 -11.0254,-24.623 -24.624,-24.623 z M 20.75,34.062 c -0.3572,-0.03 -0.7809,0.0127 -1.0835,0.1833 -1.0041,0.5667 -1.9667,1.2063 -3.1077,1.9194 0.2094,-0.9468 0.3448,-1.7759 0.5847,-2.5735 0.1764,-0.5862 0.0947,-0.9124 -0.4453,-1.2941 -3.4671,-2.4479 -4.9285,-6.1111 -3.8348,-9.8827 1.0119,-3.489 3.4968,-5.605 6.8732,-6.708 4.6086,-1.5054 9.7877,0.0302 12.5901,3.6891 1.0121,1.3217 1.6328,2.8051 1.7968,4.5595 -2.8882,0.1509 -5.3997,1.0264 -7.4388,3.0045 -2.0601,1.9985 -3.0005,4.4473 -2.7435,7.4831 C 22.8123,34.303 21.7841,34.1491 20.75,34.062 Z m 20.3231,4.7388 c -0.8903,0.79 -1.2108,1.4402 -0.6395,2.4817 0.1054,0.1921 0.1175,0.4357 0.1786,0.6785 -0.9146,-0.4072 -1.7534,-1.0181 -2.6467,-1.1115 -0.8897,-0.0929 -1.825,0.4203 -2.7559,0.5155 -2.8355,0.2902 -5.3757,-0.5001 -7.4704,-2.4371 -3.9837,-3.6847 -3.4145,-9.3345 1.1945,-12.354 4.0963,-2.6837 10.1038,-1.789 12.9919,1.9347 2.5204,3.2492 2.2242,7.5624 -0.8525,10.2922 z"
         id="path5"
         style="fill:#34495e;fill-opacity:1" /></g></g></svg>
