<?xml version="1.0" encoding="UTF-8" standalone="no"?>
<!-- Created with Inkscape (http://www.inkscape.org/) -->

<svg
   width="135.467mm"
   height="135.467mm"
   viewBox="0 0 135.467 135.467"
   version="1.1"
   id="svg1"
   xml:space="preserve"
   sodipodi:docname="twitter.svg"
   inkscape:version="1.4.2 (ebf0e940, 2025-05-08)"
   inkscape:export-filename="twitter.svg"
   inkscape:export-xdpi="96"
   inkscape:export-ydpi="96"
   xmlns:inkscape="http://www.inkscape.org/namespaces/inkscape"
   xmlns:sodipodi="http://sodipodi.sourceforge.net/DTD/sodipodi-0.dtd"
   xmlns="http://www.w3.org/2000/svg"
   xmlns:svg="http://www.w3.org/2000/svg"><sodipodi:namedview
     id="namedview1"
     pagecolor="#ffffff"
     bordercolor="#000000"
     borderopacity="0.25"
     inkscape:showpageshadow="2"
     inkscape:pageopacity="0.0"
     inkscape:pagecheckerboard="0"
     inkscape:deskcolor="#d1d1d1"
     inkscape:document-units="mm"
     inkscape:zoom="1.1209935"
     inkscape:cx="222.57043"
     inkscape:cy="180.1973"
     inkscape:window-width="1712"
     inkscape:window-height="1387"
     inkscape:window-x="2560"
     inkscape:window-y="25"
     inkscape:window-maximized="0"
     inkscape:current-layer="layer1"><inkscape:page
       x="0"
       y="0"
       width="135.46701"
       height="135.46701"
       id="page2"
       margin="0"
       bleed="0" /></sodipodi:namedview><defs
     id="defs1" /><g
     id="layer1"
     transform="translate(-25.495119,-28.796883)"><g
       id="whatsapp"
       style="fill:none;fill-rule:evenodd;stroke:none;stroke-width:1"
       transform="matrix(2.2565953,0,0,2.2565953,25.566396,28.796883)"><path
         id="path1-2"
         style="fill:#34495e;fill-opacity:1"
         d="M 29.968333,0 C 13.39979,0 -0.03158608,13.431376 -0.03158608,29.999919 c 0,16.568543 13.43137608,30.000148 29.99991908,30.000148 16.568543,0 30.000149,-13.431605 30.000149,-30.000148 C 59.968482,13.431376 46.536876,0 29.968333,0 Z m 0.07168,13.846134 c 9.00923,0 16.312941,7.247263 16.312941,16.187448 0,8.940185 -7.303429,16.187449 -16.313399,16.187449 -2.86043,0 -5.547478,-0.730994 -7.885447,-2.014071 l -9.03183,2.86985 2.944276,-8.684892 c -1.485046,-2.439508 -2.340627,-5.300367 -2.340627,-8.358336 0,-8.940185 7.303747,-16.187448 16.314086,-16.187448 z m -4.58e-4,2.578102 c -7.563322,0 -13.715374,6.1051 -13.715374,13.609346 0,2.977846 0.970852,5.735752 2.612452,7.979567 l -1.713391,5.05384 5.270475,-1.675148 c 2.165908,1.421908 4.759992,2.251317 7.545838,2.251317 7.562216,0 13.715603,-6.104872 13.715603,-13.609118 0,-7.504246 -6.153387,-13.609804 -13.715603,-13.609804 z m -5.491921,6.21923 c 0.266585,0 0.533344,0.0332 0.766698,0.0332 0.233723,0 0.566244,-0.132259 0.89929,0.661587 0.333046,0.794585 1.133342,2.747143 1.233404,2.94542 0.10006,0.199016 0.166866,0.430511 0.03321,0.69525 -0.132923,0.265107 -0.199485,0.430167 -0.399608,0.662044 -0.200123,0.231507 -0.42017,0.516822 -0.599985,0.694791 -0.200125,0.197538 -0.408768,0.412141 -0.175415,0.809064 0.232985,0.397662 1.03574,1.695993 2.224294,2.747563 1.527877,1.351753 2.816593,1.770681 3.216101,1.968957 0.399877,0.198649 0.632731,0.165492 0.866085,-0.09962 0.233723,-0.264738 1.000164,-1.157859 1.26638,-1.555151 0.266215,-0.397292 0.533191,-0.3305 0.900206,-0.198315 0.365908,0.131816 2.332432,1.092148 2.732678,1.290425 0.399139,0.198277 0.665809,0.297995 0.76624,0.463041 0.09932,0.165415 0.09932,0.960065 -0.233353,1.887204 -0.334154,0.9264 -1.96683,1.819968 -2.699015,1.886058 -0.733292,0.06609 -0.733309,0.595938 -4.799648,-0.992493 -4.064861,-1.5888 -6.630682,-5.72586 -6.830436,-5.990229 -0.200492,-0.264369 -1.632783,-2.150761 -1.632783,-4.103253 0,-1.952123 1.032695,-2.912012 1.398972,-3.309305 0.366646,-0.396926 0.800105,-0.496247 1.06669,-0.496247 z" /></g></g></svg>
