<?xml version="1.0" encoding="UTF-8" standalone="no"?>
<!-- Created with Inkscape (http://www.inkscape.org/) -->

<svg
   width="135.467mm"
   height="135.467mm"
   viewBox="0 0 135.467 135.467"
   version="1.1"
   id="svg1"
   xml:space="preserve"
   xmlns="http://www.w3.org/2000/svg"
   xmlns:svg="http://www.w3.org/2000/svg"><defs
     id="defs1" /><g
     id="layer1"><g
       style="clip-rule:evenodd;fill:#34495e;fill-opacity:1;fill-rule:evenodd;stroke-linejoin:round;stroke-miterlimit:2"
       id="g1"
       transform="matrix(0.26458333,0,0,0.26458333,3.3027926e-4,3.3027926e-4)"><path
         d="M 256,0 C 397.29,0 512,114.71 512,256 512,397.29 397.29,512 256,512 114.71,512 0,397.29 0,256 0,114.71 114.71,0 256,0 Z m 153.315,178.978 c -3.68,-13.769 -14.522,-24.61 -28.29,-28.29 C 356.067,144 256,144 256,144 c 0,0 -100.067,0 -125.025,6.688 -13.765,3.68 -24.61,14.521 -28.29,28.29 C 96,203.933 96,256.002 96,256.002 c 0,0 0,52.067 6.685,77.02 3.68,13.769 14.525,24.614 28.29,28.293 C 155.933,368 256,368 256,368 c 0,0 100.067,0 125.025,-6.685 13.768,-3.679 24.61,-14.524 28.29,-28.293 6.685,-24.953 6.685,-77.02 6.685,-77.02 0,0 0,-52.069 -6.685,-77.024 z M 223.999,304.003 v -96.002 l 83.137,48.001 z"
         id="path1"
         style="fill:#34495e;fill-opacity:1" /></g></g></svg>

