<?xml version="1.0" encoding="UTF-8" standalone="no"?>
<!-- Created with Inkscape (http://www.inkscape.org/) -->

<svg
   width="250mm"
   height="250mm"
   viewBox="0 0 250 250"
   version="1.1"
   id="svg1"
   xmlns="http://www.w3.org/2000/svg"
   xmlns:svg="http://www.w3.org/2000/svg">
  <defs
     id="defs1" />
  <g
     id="layer1">
    <path
       d="m 96.011027,111.86268 c -6.306558,0.17989 -11.775359,-0.60687 -16.12308,-2.68718 -2.985754,-4.77721 -2.687177,-7.16582 0.89573,-7.16582 3.58291,0 7.16581,0.59715 10.74872,1.79146 4.18005,1.1943 8.957263,1.1943 14.331623,0 5.37436,-1.19431 9.55442,-3.28433 12.54017,-6.270089 3.58291,-3.582906 6.56866,-5.374359 8.95727,-5.374359 2.38861,0 6.27009,1.492877 11.64444,4.478632 5.37436,2.388605 5.67294,5.374356 0.89573,8.957266 -4.77721,2.98575 -7.76296,8.36011 -8.95726,16.12308 -1.19431,7.76296 -1.19431,13.73447 0,17.91453 1.1943,4.18006 5.07578,6.27008 11.64444,6.27008 7.16581,-0.59715 12.54017,-1.49287 16.12308,-2.68717 3.58291,-1.19431 7.16581,-0.29858 10.74872,2.68717 3.58291,2.38861 3.58291,4.77721 0,7.16582 -3.58291,2.3886 -9.85299,3.88148 -18.81026,4.47863 -8.36011,0.59715 -15.52593,0.29858 -21.49744,-0.89573 -5.37436,-1.79145 -8.65869,-5.37436 -9.85299,-10.74872 -0.59715,-5.97151 -0.89573,-11.94302 -0.89573,-17.91453 0.59715,-5.97151 0.89573,-10.74872 0.89573,-14.33162 0.59715,-3.58291 -0.59715,-5.07579 -3.58291,-4.47863 -2.3886,0 -8.95726,0.89572 -19.705983,2.68718 z"
       id="text25"
       style="font-size:229.306px;line-height:229.306px;font-family:KaiTi;-inkscape-font-specification:KaiTi;text-align:end;letter-spacing:0px;word-spacing:0px;direction:rtl;text-anchor:end;stroke-width:0.264583;stroke-linejoin:bevel;paint-order:stroke markers fill"
       aria-label="没" />
  </g>
</svg>
