<?xml version="1.0" encoding="UTF-8" standalone="no"?>
<!-- Created with Inkscape (http://www.inkscape.org/) -->

<svg
   width="250mm"
   height="250mm"
   viewBox="0 0 250 250"
   version="1.1"
   id="svg1"
   xmlns="http://www.w3.org/2000/svg"
   xmlns:svg="http://www.w3.org/2000/svg">
  <defs
     id="defs1" />
  <g
     id="layer1">
    <path
       d="m 140.64323,41.877253 c 6.56866,2.985755 8.95726,6.867237 7.16581,11.644446 -1.79145,4.180057 -2.98575,10.450142 -3.5829,18.810257 -0.59715,7.762964 -0.89573,19.108834 -0.89573,34.037604 0,14.33163 0.59715,27.76753 1.79145,40.3077 1.19431,12.54017 1.19431,23.88604 0,34.03761 -0.59715,10.15157 -3.28433,18.81026 -8.06154,25.97607 -4.77721,7.76296 -8.95726,8.95726 -12.54017,3.5829 -2.98575,-5.37436 -6.27008,-9.85299 -9.85299,-13.4359 -2.98576,-4.18005 -6.56867,-7.76296 -10.74872,-10.74872 -3.58291,-2.98575 -2.98576,-3.88148 1.79145,-2.68718 4.77721,0.59715 9.55442,1.49288 14.33163,2.68718 5.37436,1.19431 8.36011,0.29858 8.95726,-2.68718 1.19431,-3.5829 2.09003,-8.95726 2.68718,-16.12307 0.59715,-7.76297 0.59715,-28.36468 0,-61.80514 0,-34.037602 -2.3886,-54.04216 -7.16581,-60.013671 -4.18005,-6.568661 -4.18005,-9.554416 0,-8.957265 4.18006,0.597151 9.55442,2.388604 16.12308,5.374359 z"
       id="text11"
       style="font-size:229.306px;line-height:229.306px;font-family:KaiTi;-inkscape-font-specification:KaiTi;text-align:end;letter-spacing:0px;word-spacing:0px;direction:rtl;text-anchor:end;stroke-width:0.264583;stroke-linejoin:bevel;paint-order:stroke markers fill"
       aria-label="å°" />
  </g>
</svg>
