<?xml version="1.0" encoding="UTF-8" standalone="no"?>
<!-- Created with Inkscape (http://www.inkscape.org/) -->

<svg
   width="250mm"
   height="250mm"
   viewBox="0 0 250 250"
   version="1.1"
   id="svg1"
   xmlns="http://www.w3.org/2000/svg"
   xmlns:svg="http://www.w3.org/2000/svg">
  <defs
     id="defs1" />
  <g
     id="layer1">
    <path
       id="text31"
       style="font-size:229.306px;line-height:229.306px;font-family:KaiTi;-inkscape-font-specification:KaiTi;text-align:end;letter-spacing:0px;word-spacing:0px;direction:rtl;text-anchor:end;stroke-width:0.264583;stroke-linejoin:bevel;paint-order:stroke markers fill"
       d="m 117.15743,82.677002 c -2.57521,0 -4.98246,1.343582 -7.22178,4.030762 -2.3886,2.985754 -7.76293,5.374517 -16.123047,7.16597 -7.762963,1.791454 -12.838889,2.089855 -15.227494,0.895553 -2.388604,-1.194302 -5.673088,-2.090023 -9.853145,-2.687174 -0.979181,13.794547 16.123047,9.853147 16.123047,9.853147 13.734474,-2.985757 22.393289,-4.7772 25.976189,-5.374351 3.58291,-0.597151 5.67275,0.29857 6.2699,2.687174 1.19431,2.388607 1.79163,10.748497 1.79163,25.080127 0,14.33162 -0.29841,22.99043 -0.89556,25.97619 0,2.3886 0.89572,5.97149 2.68718,10.7487 1.79145,4.18005 3.28398,6.2699 4.47828,6.2699 1.1943,-0.59715 2.68734,-2.98592 4.4788,-7.16597 27.46894,-4.77721 43.59193,-7.46437 48.36914,-8.06152 5.37436,-0.59716 4.18023,-3.58272 -3.58273,-8.95708 l -10.7487,1.79162 c -12.54017,2.98576 -23.88615,5.374 -34.03771,7.16546 v -28.66286 c 0,-13.73447 1.19413,-22.39328 3.58273,-25.976188 2.3886,-3.582906 1.49287,-6.568472 -2.68718,-8.957076 -3.58291,-2.388604 -7.1658,-4.180047 -10.7487,-5.374349 -0.89573,-0.298576 -1.77244,-0.448035 -2.63085,-0.448035 z" />
  </g>
</svg>
