<?xml version="1.0" encoding="UTF-8" standalone="no"?>
<!-- Created with Inkscape (http://www.inkscape.org/) -->

<svg
   width="250mm"
   height="250mm"
   viewBox="0 0 250 250"
   version="1.1"
   id="svg1"
   xmlns="http://www.w3.org/2000/svg"
   xmlns:svg="http://www.w3.org/2000/svg">
  <defs
     id="defs1" />
  <g
     id="layer1">
    <path
       d="m 133.38997,102.72741 c -7.83247,-1.1211 0.0169,-6.220295 0,0 -0.59715,45.38348 -1.49287,76.73391 -2.68718,94.05129 -1.1943,17.31738 -3.28433,26.27465 -6.27008,26.8718 -2.98576,0.59715 -4.77721,-6.56867 -5.37436,-21.49744 v -97.6342 c 0,-4.14927 0,13.35701 0,0 V 61.523992 c 0,-11.943021 -1.79145,-20.900286 -5.37436,-26.871797 -3.58291,-6.568661 -2.68718,-9.255841 2.68718,-8.061539 5.37436,0.597151 10.74872,2.388604 16.12308,5.374359 5.97151,2.985755 7.46438,6.270086 4.47863,9.852993 -2.38861,3.582906 -3.58291,30.454696 -3.58291,60.909402 z"
       style="font-size:229.306px;line-height:229.306px;font-family:KaiTi;-inkscape-font-specification:KaiTi;text-align:end;letter-spacing:0px;word-spacing:0px;direction:rtl;text-anchor:end;stroke-width:0.264583;stroke-linejoin:bevel;paint-order:stroke markers fill"
       id="path1-6" />
  </g>
</svg>
