<?xml version="1.0" encoding="UTF-8" standalone="no"?>
<!-- Created with Inkscape (http://www.inkscape.org/) -->

<svg
   width="250mm"
   height="250mm"
   viewBox="0 0 250 250"
   version="1.1"
   id="svg1"
   xmlns="http://www.w3.org/2000/svg"
   xmlns:svg="http://www.w3.org/2000/svg">
  <defs
     id="defs1" />
  <g
     id="layer1">
    <path
       d="m 129.92649,40.248693 c 7.16581,3.582906 11.64445,6.867237 13.4359,9.852992 1.79145,2.985755 2.68718,7.762964 2.68718,14.331625 l 0.89573,11.644445 c 1.1943,9.554414 1.79145,19.108831 1.79145,28.663255 0,9.85299 0,0 0,9.85299 0.59715,23.28889 0.89573,38.51625 0.89573,45.68206 0,7.16581 -0.89573,14.63019 -2.68718,22.39316 -1.1943,7.76297 -5.07578,14.92878 -11.64445,21.49744 -6.56866,7.16581 -10.45014,7.76296 -11.64444,1.79145 -1.19431,-5.37436 -6.56867,-11.04729 -16.12308,-17.0188 -9.554417,-6.56867 -9.554417,-8.36012 0,-5.37436 10.15157,2.3886 17.0188,2.3886 20.60171,0 4.18006,-2.98576 6.56866,-9.853 7.16581,-20.60171 1.19431,-10.74872 1.49288,-26.27465 0.89573,-46.57779 0,-10.74871 0,0 0,-10.74871 0,-9.554424 -0.59715,-18.511694 -1.79145,-26.871805 L 132.61367,67.12049 c -0.59715,-4.777209 -2.09002,-9.255842 -4.47863,-13.435899 -2.38861,-4.777208 -4.47864,-8.65869 -6.27009,-11.644445 0.53946,-1.885781 3.22664,-2.482932 8.06154,-1.791453 z"
       id="text21"
       style="font-size:229.306px;line-height:229.306px;font-family:KaiTi;-inkscape-font-specification:KaiTi;text-align:end;letter-spacing:0px;word-spacing:0px;direction:rtl;text-anchor:end;stroke-width:0.264583;stroke-linejoin:bevel;paint-order:stroke markers fill"
       aria-label="手" />
  </g>
</svg>
