<?xml version="1.0" encoding="UTF-8" standalone="no"?>
<!-- Created with Inkscape (http://www.inkscape.org/) -->

<svg
   width="250mm"
   height="250mm"
   viewBox="0 0 250 250"
   version="1.1"
   id="svg1"
   xmlns="http://www.w3.org/2000/svg"
   xmlns:svg="http://www.w3.org/2000/svg">
  <defs
     id="defs1" />
  <g
     id="layer1">
    <path
       d="m 116.7414,78.141687 c 8.36011,2.98576 11.34587,6.56867 8.95727,10.74872 -1.79146,3.58291 -3.28434,11.345873 -4.47864,23.288893 -1.1943,11.94302 -2.3886,20.60171 -3.5829,25.97606 -0.59715,5.37436 -0.29858,7.76297 0.89572,7.16582 1.19431,-1.19431 7.46439,-6.27009 18.81026,-15.22735 11.34587,-9.55441 15.22735,-11.34586 11.64445,-5.37435 -3.58291,5.37435 -10.15157,13.13731 -19.70599,23.28888 -8.95726,9.55441 -14.92877,16.72022 -17.91453,21.49743 -2.98575,4.18006 -5.67293,4.47864 -8.06154,0.89573 -1.79145,-3.58291 -2.98575,-6.86724 -3.582905,-9.85299 0,-2.98575 1.492875,-7.16581 4.478635,-12.54017 3.5829,-5.37436 5.97151,-15.82449 7.16581,-31.35042 1.1943,-16.12308 0,-27.170383 -3.58291,-33.141893 -2.98575,-5.97151 0,-7.76296 8.95727,-5.37436 z"
       style="font-size:229.306px;line-height:229.306px;font-family:KaiTi;-inkscape-font-specification:KaiTi;text-align:end;letter-spacing:0px;word-spacing:0px;direction:rtl;text-anchor:end;stroke-width:0.264583;stroke-linejoin:bevel;paint-order:stroke markers fill"
       id="path1-7" />
  </g>
</svg>
