<?xml version="1.0" encoding="UTF-8" standalone="no"?>
<!-- Created with Inkscape (http://www.inkscape.org/) -->

<svg
   width="250mm"
   height="250mm"
   viewBox="0 0 250 250"
   version="1.1"
   id="svg1"
   xmlns="http://www.w3.org/2000/svg"
   xmlns:svg="http://www.w3.org/2000/svg">
  <defs
     id="defs1" />
  <g
     id="layer1">
    <path
       d="m 112.35906,95.610379 c 11.34587,-2.3886 18.51168,-4.47863 21.49743,-6.27008 2.98575,-1.79145 5.97151,-2.09003 8.95727,-0.89573 2.98575,1.1943 5.67293,2.98575 8.06154,5.37436 2.98575,1.79145 3.5829,3.58291 1.79145,5.37436 -1.1943,1.791451 -2.09003,6.568661 -2.68718,14.331621 v 34.03761 c 0.59715,14.92878 0,25.08035 -1.79145,30.45471 -1.79145,5.37436 -4.47863,5.67293 -8.06154,0.89572 -2.98576,-4.77721 -3.88149,-9.85299 -2.68718,-15.22735 1.1943,-5.97151 1.79145,-16.42165 1.79145,-31.35043 0,-6.27008 0,0 0,-6.27008 0,-11.94302 -0.29858,-19.40741 -0.89573,-22.39317 0,-2.98575 -4.18006,-3.881481 -12.54016,-2.68718 -8.36012,1.19431 -13.73448,2.68719 -16.12308,4.47864 -1.79145,1.79145 -4.47863,1.49288 -8.06154,-0.89573 -2.985755,-2.38861 -3.582907,-5.075791 -1.791454,-8.061541 1.791454,-2.98575 2.090034,-6.86724 0.895724,-11.64445 -0.59715,-4.77721 -1.79145,-8.95726 -3.582903,-12.54017 -1.791453,-3.58291 -0.597151,-5.07578 3.582903,-4.47863 4.77721,0.59715 8.36012,1.79146 10.74872,3.58291 2.98576,1.1943 3.88148,3.5829 2.68718,7.16581 -1.1943,2.98575 -1.79145,8.65869 -1.79145,17.0188 z"
       id="text30"
       style="font-size:229.306px;line-height:229.306px;font-family:KaiTi;-inkscape-font-specification:KaiTi;text-align:end;letter-spacing:0px;word-spacing:0px;direction:rtl;text-anchor:end;stroke-width:0.264583;stroke-linejoin:bevel;paint-order:stroke markers fill"
       aria-label="鼎" />
  </g>
</svg>
