<?xml version="1.0" encoding="UTF-8" standalone="no"?>
<!-- Created with Inkscape (http://www.inkscape.org/) -->

<svg
   width="250mm"
   height="250mm"
   viewBox="0 0 250 250"
   version="1.1"
   id="svg1"
   xmlns="http://www.w3.org/2000/svg"
   xmlns:svg="http://www.w3.org/2000/svg">
  <defs
     id="defs1" />
  <g
     id="layer1">
    <path
       d="m 66.71379,58.15192 c -4.77721,-4.18005 -4.77721,-6.27008 0,-6.27008 4.77721,0 14.6302,-0.59715 29.55898,-1.79146 14.92878,-1.79145 26.8718,-3.5829 35.82906,-5.37436 9.55442,-2.3886 16.72023,-4.47863 21.49744,-6.27008 5.37436,-1.79145 9.55442,-1.79145 12.54017,0 3.58291,1.1943 8.36012,3.88148 14.33163,8.06154 5.97151,3.5829 7.76296,6.56866 5.37436,8.95726 -1.79145,1.79146 -3.58291,5.67294 -5.37436,11.64445 -1.1943,5.37436 -2.09003,14.33162 -2.68718,26.8718 v 40.30769 c 0,14.33163 -1.49288,28.36468 -4.47863,42.09915 -2.98576,13.13733 -8.95727,23.2889 -17.91454,30.45471 -8.36011,7.76296 -13.4359,8.06153 -15.22735,0.89572 -1.1943,-6.56866 -6.27008,-13.4359 -15.22735,-20.60171 -8.36011,-7.16581 -10.15157,-9.85299 -5.37436,-8.06154 4.77721,1.79145 10.45014,3.58291 17.01881,5.37436 7.16581,1.79145 12.54017,0.89573 16.12308,-2.68718 4.18005,-3.58291 7.16581,-12.54017 8.95726,-26.87179 2.38861,-14.92878 3.58291,-33.44046 3.58291,-55.53506 0.59715,-22.09458 -1e-5,-36.12763 -1.79146,-42.09914 -1.1943,-6.56866 -12.24159,-8.06154 -33.14188,-4.47864 -20.30313,3.58291 -34.63476,6.56866 -42.99488,8.95727 -8.36011,1.79145 -15.22735,0.59715 -20.60171,-3.58291 z"
       id="text8"
       style="font-size:229.306px;line-height:229.306px;font-family:KaiTi;-inkscape-font-specification:KaiTi;text-align:end;letter-spacing:0px;word-spacing:0px;direction:rtl;text-anchor:end;stroke-width:0.264583;stroke-linejoin:bevel;paint-order:stroke markers fill"
       aria-label="习" />
  </g>
</svg>
