<?xml version="1.0" encoding="UTF-8" standalone="no"?>
<!-- Created with Inkscape (http://www.inkscape.org/) -->

<svg
   width="250mm"
   height="250mm"
   viewBox="0 0 250 250"
   version="1.1"
   id="svg1"
   xmlns="http://www.w3.org/2000/svg"
   xmlns:svg="http://www.w3.org/2000/svg">
  <defs
     id="defs1" />
  <g
     id="layer1">
    <path
       d="m 74.927896,65.135608 c 5.37436,1.194302 8.65869,3.582906 9.853,7.165813 1.1943,3.582906 6.27008,12.540171 15.227354,26.871795 9.55441,14.331624 20.00456,28.066094 31.35043,41.203414 11.34587,13.13733 22.09458,22.69174 32.24615,28.66325 10.74872,5.97151 18.21311,10.15157 22.39317,12.54018 4.77721,1.79145 5.37436,2.98575 1.79145,3.5829 -3.58291,0.59715 -9.85299,0.89573 -18.81026,0.89573 -8.95727,0 -16.72023,-0.59715 -23.28889,-1.79145 -5.97151,-1.79145 -11.64444,-7.16581 -17.0188,-16.12308 -4.77721,-8.95727 -12.83875,-22.69174 -24.18462,-41.20342 C 93.738156,108.42905 85.378046,95.291736 79.406536,87.528772 73.435026,79.765809 68.060666,74.092874 63.283456,70.509968 c -4.18006,-4.180057 -4.47864,-6.270086 -0.89573,-6.270086 3.58291,-0.597151 7.76296,-0.298576 12.54017,0.895726 z"
       id="text7"
       style="font-size:229.306px;line-height:229.306px;font-family:KaiTi;-inkscape-font-specification:KaiTi;text-align:end;letter-spacing:0px;word-spacing:0px;direction:rtl;text-anchor:end;stroke-width:0.264583;stroke-linejoin:bevel;paint-order:stroke markers fill"
       aria-label="八" />
  </g>
</svg>
