<?xml version="1.0" encoding="UTF-8" standalone="no"?>
<!-- Created with Inkscape (http://www.inkscape.org/) -->

<svg
   width="250mm"
   height="250mm"
   viewBox="0 0 250 250"
   version="1.1"
   id="svg1"
   xmlns="http://www.w3.org/2000/svg"
   xmlns:svg="http://www.w3.org/2000/svg">
  <defs
     id="defs1" />
  <g
     id="layer1">
    <path
       d="m 114.83244,68.060705 c 4.77721,4.18006 5.67293,7.46439 2.68718,9.853 -2.98575,1.79145 -6.27008,5.07578 -9.85299,9.85299 -3.58291,4.18005 -4.18006,6.27008 -1.79146,6.27008 2.98576,0 8.36012,-0.59715 16.12308,-1.79145 7.76297,-1.1943 13.4359,-2.68718 17.01881,-4.47863 4.18005,-1.79145 8.06153,-1.79145 11.64444,0 3.58291,1.79145 7.76296,4.47863 12.54017,8.06154 5.37436,3.58291 6.56866,6.568665 3.58291,8.957265 -2.38861,2.38861 -4.47864,6.56866 -6.27009,12.54017 -1.1943,5.37436 -2.98575,14.03305 -5.37436,25.97607 -2.3886,11.34587 -5.67293,19.70599 -9.85299,25.08035 -4.18005,5.97151 -8.95726,10.45014 -14.33162,13.4359 -4.77721,2.98575 -7.76296,2.09003 -8.95727,-2.68718 -0.59715,-4.77721 -5.37435,-10.15157 -14.33162,-16.12308 -8.360122,-5.97151 -8.061542,-7.46439 0.89572,-4.47863 9.55442,2.3886 16.12308,3.28433 19.70599,2.68718 3.58291,-0.59715 6.56866,-3.88149 8.95726,-9.853 2.38861,-5.97151 4.77721,-15.52592 7.16582,-28.66325 2.3886,-13.13732 2.09002,-20.60171 -0.89573,-22.39316 -2.98575,-2.388615 -10.74872,-2.687185 -23.28889,-0.895735 -11.94302,1.791455 -21.198862,4.777215 -27.767527,8.957275 -6.568661,3.58291 -10.151567,2.98576 -10.748718,-1.79145 -0.597151,-5.37436 2.388604,-9.852995 8.957265,-13.435905 6.568658,-4.18006 11.04729,-11.94302 13.4359,-23.28889 2.55299,-3.81565 6.13589,-4.41281 10.74872,-1.79146 z"
       id="text18"
       style="font-size:229.306px;line-height:229.306px;font-family:KaiTi;-inkscape-font-specification:KaiTi;text-align:end;letter-spacing:0px;word-spacing:0px;direction:rtl;text-anchor:end;stroke-width:0.264583;stroke-linejoin:bevel;paint-order:stroke markers fill"
       aria-label="å·" />
  </g>
</svg>
