<?xml version="1.0" encoding="UTF-8" standalone="no"?>
<!-- Created with Inkscape (http://www.inkscape.org/) -->

<svg
   width="250mm"
   height="250mm"
   viewBox="0 0 250 250"
   version="1.1"
   id="svg1"
   xmlns="http://www.w3.org/2000/svg"
   xmlns:svg="http://www.w3.org/2000/svg">
  <defs
     id="defs1" />
  <g
     id="layer1">
    <path
       id="text23"
       style="font-size:229.306px;line-height:229.306px;font-family:KaiTi;-inkscape-font-specification:KaiTi;text-align:end;letter-spacing:0px;word-spacing:0px;direction:rtl;text-anchor:end;stroke-width:0.264583;stroke-linejoin:bevel;paint-order:stroke markers fill"
       d="m 110.80713,96.341368 c -6.38586,-2.896 -10.26727,-2.29896 -11.644244,1.79111 2.985754,4.777202 4.179884,14.033342 3.582734,27.767812 -0.59715,13.73448 1.49269,22.39329 6.2699,25.9762 5.37435,3.58291 14.33208,4.47862 26.87225,2.68717 13.13732,-2.38861 17.61592,-5.37468 13.43587,-8.95759 -4.18006,-4.18005 -8.65866,-5.37418 -13.43587,-3.58273 -4.18006,1.1943 -8.36027,2.09002 -12.54032,2.68717 -3.58291,0 -6.27007,-1.19412 -8.06152,-3.58272 -1.19431,-2.38861 -1.79162,-7.46453 -1.79162,-15.2275 0,-8.36012 0.59731,-14.03336 1.79162,-17.01911 1.79143,-3.58287 0.29832,-7.76265 -4.4788,-12.539812 z" />
  </g>
</svg>
