<?xml version="1.0" encoding="UTF-8" standalone="no"?>
<!-- Created with Inkscape (http://www.inkscape.org/) -->

<svg
   width="250mm"
   height="250mm"
   viewBox="0 0 250 250"
   version="1.1"
   id="svg1"
   xmlns="http://www.w3.org/2000/svg"
   xmlns:svg="http://www.w3.org/2000/svg">
  <defs
     id="defs1" />
  <g
     id="layer1">
    <path
       id="text9"
       style="font-size:229.306px;line-height:229.306px;font-family:KaiTi;-inkscape-font-specification:KaiTi;text-align:end;letter-spacing:0px;word-spacing:0px;direction:rtl;text-anchor:end;stroke-width:0.264583;stroke-linejoin:bevel;paint-order:stroke markers fill"
       d="m 159.0601,93.523344 c -2.61254,0 -5.22523,0.93322 -7.83777,2.79931 -3.58291,2.38861 -12.24172,4.777366 -25.97619,7.165966 -16.72023,2.38861 -41.800479,5.37435 -48.369139,5.37435 -6.56866,0 -7.16547,2.08985 -1.79111,6.2699 5.97151,3.58291 10.74852,4.77703 14.33143,3.58273 3.53814,-1.0109 19.055269,-4.16081 30.256029,-6.19084 l 11.34143,-2.17299 c 5.67361,-1.1374 10.31939,-1.93259 13.93765,-2.38487 5.37436,-0.59715 8.35993,0.59749 8.95708,3.58325 0.86821,1.7364 3.13308,13.00486 3.38739,27.51718 l -0.74518,17.39222 6.05855,0.0171 c 3.58291,-19.70599 9.21372,-41.34355 12.79663,-44.92645 4.18006,-3.58291 4.18006,-6.86739 0,-9.85315 -3.58291,-2.985746 -7.4642,-5.374516 -11.64425,-7.165966 -1.56752,-0.67179 -3.13503,-1.00769 -4.70255,-1.00769 z" />
  </g>
</svg>
