<?xml version="1.0" encoding="UTF-8" standalone="no"?>
<!-- Created with Inkscape (http://www.inkscape.org/) -->

<svg
   width="250mm"
   height="250mm"
   viewBox="0 0 250 250"
   version="1.1"
   id="svg1"
   xmlns="http://www.w3.org/2000/svg"
   xmlns:svg="http://www.w3.org/2000/svg">
  <defs
     id="defs1" />
  <g
     id="layer1">
    <path
       d="m 148.88568,76.901229 c 4.18006,1.194302 7.76297,2.985755 10.74872,5.374359 3.58291,2.388605 3.88148,5.075783 0.89573,8.061536 -2.3886,2.98576 -5.67294,9.852996 -9.85299,20.601706 -4.18006,10.74872 -11.0473,22.09459 -20.60171,34.03761 -8.95727,11.34587 -19.70599,20.00456 -32.24616,25.97607 -12.540172,5.37436 -13.734474,4.18006 -3.582906,-3.5829 10.151566,-8.36011 18.511686,-17.0188 25.080346,-25.97607 7.16581,-9.55442 12.54017,-18.81026 16.12308,-27.76753 4.18005,-9.55441 6.27008,-15.824496 6.27008,-18.810246 0.59715,-3.58291 -0.59715,-5.374363 -3.58291,-5.374363 -2.98575,0 -8.95726,1.791453 -17.91453,5.374363 -8.95726,2.98575 -15.8245,2.68718 -20.601707,-0.89573 -4.180057,-4.180057 -5.075784,-6.270086 -2.68718,-6.270086 2.388605,-0.597151 5.672937,-0.895727 9.852997,-0.895727 4.7772,-0.597151 10.74871,-1.492877 17.91453,-2.68718 7.16581,-1.791453 11.94302,-3.881481 14.33162,-6.270085 2.38861,-2.388605 5.67294,-2.68718 9.85299,-0.895727 z"
       id="text15"
       style="font-size:229.306px;line-height:229.306px;font-family:KaiTi;-inkscape-font-specification:KaiTi;text-align:end;letter-spacing:0px;word-spacing:0px;direction:rtl;text-anchor:end;stroke-width:0.264583;stroke-linejoin:bevel;paint-order:stroke markers fill"
       aria-label="水" />
  </g>
</svg>
