<?xml version="1.0" encoding="UTF-8" standalone="no"?>
<!-- Created with Inkscape (http://www.inkscape.org/) -->

<svg
   width="250mm"
   height="250mm"
   viewBox="0 0 250 250"
   version="1.1"
   id="svg1"
   xmlns="http://www.w3.org/2000/svg"
   xmlns:svg="http://www.w3.org/2000/svg">
  <defs
     id="defs1" />
  <g
     id="layer1">
    <path
       d="m 144.15037,129.13074 c 1.08276,0.99946 -78.548543,10.16276 -94.326983,13.80394 -9.96951,2.30066 -19.17214,0.38344 -27.60789,-5.75165 -7.66886,-6.13509 -6.90198,-9.20263 2.30066,-9.20263 9.20263,-0.76688 18.02182,-1.53377 26.45756,-2.30065 6.63154,-0.55264 20.23214,-1.90173 40.80178,-4.04728 7.974981,-0.83185 16.997533,-1.78341 27.067643,-2.8547 36.81053,-4.60132 60.20054,-8.0523 70.17007,-10.35296 10.7364,-3.06755 19.55559,-3.06755 26.45756,0 6.90196,2.30066 12.27017,5.75164 16.10459,10.35296 3.83443,3.83443 0,5.75164 -11.50328,5.75164 -10.7364,0 -21.85624,0.38345 -33.35954,1.15034 -11.50328,0 -25.69067,1.15032 -42.56217,3.45099 z"
       style="font-size:229.306px;line-height:229.306px;font-family:KaiTi;-inkscape-font-specification:KaiTi;text-align:end;letter-spacing:0px;word-spacing:0px;direction:rtl;text-anchor:end;stroke-width:0.339788;stroke-linejoin:bevel;paint-order:stroke markers fill"
       id="path1-5" />
  </g>
</svg>
