<?xml version="1.0" encoding="UTF-8" standalone="no"?>
<!-- Created with Inkscape (http://www.inkscape.org/) -->

<svg
   width="250mm"
   height="250mm"
   viewBox="0 0 250 250"
   version="1.1"
   id="svg1"
   xmlns="http://www.w3.org/2000/svg"
   xmlns:svg="http://www.w3.org/2000/svg">
  <defs
     id="defs1" />
  <g
     id="layer1">
    <path
       d="m 120.23157,116.92187 c 21.49744,9.55442 34.63476,20.30314 39.41197,32.24616 5.37436,11.34587 5.67294,22.39316 0.89573,33.14188 -4.18006,10.15157 -8.65869,12.2416 -13.4359,6.27009 -4.18006,-6.56866 -10.45015,-12.2416 -18.81026,-17.01881 -7.76297,-4.77721 -7.16582,-6.27008 1.79145,-4.47863 8.95727,1.79145 14.33163,2.3886 16.12308,1.79145 2.38861,-1.1943 2.68718,-5.37436 0.89573,-12.54017 -1.19431,-7.16581 -5.07579,-14.03305 -11.64445,-20.60171 -6.56866,-6.56866 -11.64444,-11.04729 -15.22735,-13.4359 -3.58291,-2.98575 -4.47863,-6.27008 -2.68718,-9.85299 1.79145,-3.58291 5.37436,-11.34587 10.74872,-23.288891 5.97151,-12.540171 5.97151,-18.213106 0,-17.018804 -5.97151,1.194302 -14.03305,2.985755 -24.18462,5.374359 -5.550197,0.668548 -11.070717,1.173849 -16.123077,-0.895727 -3.58291,-6.568661 -2.09003,-8.65869 4.47864,-6.270085 6.56866,1.791453 12.540167,2.090028 17.914527,0.895726 5.37436,-1.791453 10.15157,-3.582906 14.33162,-5.374359 4.18006,-1.791453 7.46439,-3.582907 9.85299,-5.37436 2.98576,-2.388604 5.97152,-2.985755 8.95727,-1.791453 3.58291,1.194302 7.46439,3.582906 11.64445,7.165813 4.77721,2.985755 4.18005,6.270086 -1.79146,9.852992 -5.97151,2.985755 -17.0188,16.720229 -33.14188,41.203419 z"
       id="text19"
       style="font-size:229.306px;line-height:229.306px;font-family:KaiTi;-inkscape-font-specification:KaiTi;text-align:end;letter-spacing:0px;word-spacing:0px;direction:rtl;text-anchor:end;stroke-width:0.264583;stroke-linejoin:bevel;paint-order:stroke markers fill"
       aria-label="那" />
  </g>
</svg>
