<?xml version="1.0" encoding="UTF-8" standalone="no"?>
<!-- Created with Inkscape (http://www.inkscape.org/) -->

<svg
   width="250mm"
   height="250mm"
   viewBox="0 0 250 250"
   version="1.1"
   id="svg1"
   xmlns="http://www.w3.org/2000/svg"
   xmlns:svg="http://www.w3.org/2000/svg">
  <defs
     id="defs1" />
  <g
     id="layer1">
    <path
       d="m 103.00493,93.475401 c 2.68718,10.748719 2.68718,10.748719 2.68718,10.748719 3.58291,14.92877 8.06154,28.96182 13.4359,42.09915 5.37436,13.13732 11.64445,24.48319 18.81026,34.03761 7.76296,9.55441 13.13732,14.33162 16.12308,14.33162 2.98575,0 5.97151,-5.97151 8.95726,-17.91453 3.58291,-11.94302 5.67294,-16.12308 6.27009,-12.54017 0.59715,3.58291 0.59715,10.45014 0,20.60171 0,10.15157 0.89573,19.10883 2.68718,26.87179 2.3886,7.76297 -0.59716,10.15157 -8.95727,7.16582 -8.36011,-2.98576 -17.31738,-10.45015 -26.8718,-22.39317 -9.55441,-12.54017 -17.31738,-25.67749 -23.28889,-39.41197 -5.97151,-13.73447 -11.34586,-30.75328 -16.123066,-51.05641 16.123066,51.05641 7.924816,28.97099 -2.68718,-9.85299 -2.38861,-16.720229 -4.77721,-29.2604 -7.16582,-37.620515 -2.3886,-8.957266 -5.07578,-15.824503 -8.06154,-20.601711 -2.3886,-5.374359 -2.09002,-8.061539 0.89573,-8.061539 3.58291,0 8.36012,1.194302 14.33163,3.582906 5.971506,2.388604 7.762956,6.270086 5.37436,11.644445 -1.79145,4.777209 -0.59715,20.900287 3.582896,48.369235 z"
       id="text14"
       style="font-size:229.306px;line-height:229.306px;font-family:KaiTi;-inkscape-font-specification:KaiTi;text-align:end;letter-spacing:0px;word-spacing:0px;direction:rtl;text-anchor:end;stroke-width:0.264583;stroke-linejoin:bevel;paint-order:stroke markers fill"
       aria-label="试" />
  </g>
</svg>
