<?xml version="1.0" encoding="UTF-8" standalone="no"?>
<!-- Created with Inkscape (http://www.inkscape.org/) -->

<svg
   width="250mm"
   height="250mm"
   viewBox="0 0 250 250"
   version="1.1"
   id="svg1"
   xmlns="http://www.w3.org/2000/svg"
   xmlns:svg="http://www.w3.org/2000/svg">
  <defs
     id="defs1" />
  <g
     id="layer1">
    <path
       id="text28"
       style="font-size:229.306px;line-height:229.306px;font-family:KaiTi;-inkscape-font-specification:KaiTi;text-align:end;letter-spacing:0px;word-spacing:0px;direction:rtl;text-anchor:end;stroke-width:0.264583;stroke-linejoin:bevel;paint-order:stroke markers fill"
       d="m 166.30835,49.314637 c -2.87379,-0.07698 -5.74739,1.115862 -8.62118,3.57911 -4.18006,2.985755 -13.7346,6.270238 -28.66337,9.853145 -14.33163,2.985755 -26.27492,5.374518 -35.82934,7.165971 -9.554417,1.791453 -17.914309,2.687175 -25.080122,2.687175 -6.568661,0 -6.86758,2.089844 -0.89607,6.269901 6.568661,4.180057 11.346187,5.374697 14.331942,3.583244 3.582907,-1.791453 13.044962,-3.462731 24.6491,-6.375189 l 4.821,-1.362537 7.25479,-2.115419 c 12.54017,-3.582907 21.49739,-5.971669 26.87175,-7.165971 5.37436,-1.194302 9.25565,-1.492704 11.64425,-0.895553 2.38861,0 2.98592,2.388763 1.79162,7.165971 -0.59715,4.180057 -2.68751,10.748508 -6.27042,19.705774 -2.98575,8.957261 -6.26972,14.928911 -9.85263,17.914671 -2.98575,2.98575 -3.88147,6.86704 -2.68717,11.64425 1.1943,4.18006 3.28415,5.37417 6.2699,3.58272 2.98576,-1.79145 7.16596,-3.5829 12.54032,-5.37435 5.37436,-1.79145 7.46421,0.29891 6.2699,6.27042 -0.59715,5.37436 -2.08967,11.04709 -4.47828,17.0186 -2.38861,5.37436 -5.37468,10.74869 -8.95759,16.12305 l -6.44282,8.45597 c -5.37436,7.16581 -13.26328,13.04141 -22.22055,18.41577 -8.36011,4.77721 -17.01841,8.65902 -25.975676,11.64477 -8.360115,2.38861 -8.061712,3.58273 0.895553,3.58273 8.957263,0 18.212893,-2.08984 27.767303,-6.2699 10.15157,-4.18005 19.4077,-10.1517 27.76781,-17.91467 l 7.16597,-8.06153 c 9.55441,-14.92877 15.22715,-25.37903 17.0186,-31.35054 2.38861,-6.56866 4.77736,-10.74887 7.16597,-12.54032 2.98575,-1.79145 3.28416,-3.88129 0.89555,-6.2699 -2.3886,-2.98575 -5.37416,-5.37452 -8.95707,-7.16597 -2.98576,-1.79145 -5.97184,-2.08986 -8.95759,-0.89555 -2.3886,1.1943 -6.26989,2.09002 -11.64425,2.68717 3.58291,-8.36011 7.7631,-17.615726 12.54031,-27.767293 4.77721,-10.748719 8.9569,-17.616088 12.53981,-20.601843 4.18006,-3.582907 4.47898,-6.27007 0.89607,-8.061523 -2.98576,-2.388605 -6.86756,-4.478965 -11.64477,-6.270418 -1.30627,-0.559829 -2.61236,-0.856946 -3.91862,-0.891936 z" />
  </g>
</svg>
