<?xml version="1.0" encoding="UTF-8" standalone="no"?>
<!-- Created with Inkscape (http://www.inkscape.org/) -->

<svg
   width="250mm"
   height="250mm"
   viewBox="0 0 250 250"
   version="1.1"
   id="svg1"
   xmlns="http://www.w3.org/2000/svg"
   xmlns:svg="http://www.w3.org/2000/svg">
  <defs
     id="defs1" />
  <g
     id="layer1">
    <path
       d="m 140.48104,122.52109 c 5.97151,-0.59715 12.85054,-0.34627 25.98786,-1.54058 13.13733,-1.79145 22.99032,-2.09003 29.55898,-0.89572 7.47666,1.61206 9.12458,4.0896 0,8.06154 -19.70599,1.1943 -37.32194,2.98575 -52.84787,5.37436 -15.52593,1.79145 -28.66325,3.88148 -39.41196,6.27008 -10.748724,2.38861 -19.705989,5.07579 -26.871801,8.06154 -6.568662,2.38861 -11.644446,5.37436 -15.227352,8.95727 -2.985755,3.58291 -5.971511,2.09003 -8.957266,-4.47864 -2.985755,-6.56866 -2.388603,-11.34587 1.791454,-14.33162 4.777208,-3.58291 6.568661,-9.85299 5.374359,-18.81026 -1.194302,-8.95727 -4.478633,-16.12308 -9.852992,-21.497435 -4.777209,-5.97151 -2.090029,-7.76296 8.061539,-5.37436 10.151567,2.38861 14.928776,5.67294 14.331625,9.852995 -0.597151,4.18005 -0.895727,11.04729 -0.895727,20.60171 l -0.895726,12.54017 c 15.525927,-2.98575 28.096024,-7.44011 50.190617,-11.02302 z"
       id="text10"
       style="font-size:229.306px;line-height:229.306px;font-family:KaiTi;-inkscape-font-specification:KaiTi;text-align:end;letter-spacing:0px;word-spacing:0px;direction:rtl;text-anchor:end;stroke-width:0.264583;stroke-linejoin:bevel;paint-order:stroke markers fill"
       aria-label="山" />
  </g>
</svg>
