<?xml version="1.0" encoding="UTF-8" standalone="no"?>
<!-- Created with Inkscape (http://www.inkscape.org/) -->

<svg
   width="250mm"
   height="250mm"
   viewBox="0 0 250 250"
   version="1.1"
   id="svg1"
   xmlns="http://www.w3.org/2000/svg"
   xmlns:svg="http://www.w3.org/2000/svg">
  <defs
     id="defs1" />
  <g
     id="layer1">
    <path
       d="m 95.86756,52.286194 c 3.58291,2.388604 4.47863,4.777208 2.68718,7.165812 -1.19431,2.388605 -2.98576,9.554417 -5.37436,21.497438 -2.38861,11.34587 -4.18006,29.260406 -5.37436,53.743596 -0.59715,23.88604 1.49287,38.81481 6.27008,44.78632 4.77721,5.97151 13.13733,9.55442 25.08035,10.74872 11.94302,0.59715 20.90028,-0.29857 26.87179,-2.68718 6.56867,-2.3886 10.45015,-5.07578 11.64445,-8.06154 1.79145,-2.98575 3.28433,-9.55441 4.47863,-19.70598 1.79145,-10.15157 3.28433,-9.55442 4.47863,1.79145 1.19431,11.34587 3.28434,20.00456 6.27009,25.97607 3.58291,5.37436 0.89573,9.55442 -8.06154,12.54018 -8.36011,2.98575 -20.00456,4.77721 -34.93333,5.37436 -14.92878,0 -27.17038,-2.68718 -36.72479,-8.06154 -8.95727,-5.37436 -14.03305,-17.01881 -15.22735,-34.93334 -0.59715,-18.51168 -0.29858,-39.71054 0.89572,-63.596585 1.79145,-24.483193 1.1943,-40.00912 -1.79145,-46.577781 -2.98575,-6.568661 -1.49288,-8.957266 4.47863,-7.165813 6.56866,1.791453 11.34587,4.180058 14.33163,7.165813 z"
       id="text13"
       style="font-size:229.306px;line-height:229.306px;font-family:KaiTi;-inkscape-font-specification:KaiTi;text-align:end;letter-spacing:0px;word-spacing:0px;direction:rtl;text-anchor:end;stroke-width:0.264583;stroke-linejoin:bevel;paint-order:stroke markers fill"
       aria-label="儿" />
  </g>
</svg>
