<?xml version="1.0" encoding="UTF-8" standalone="no"?>
<!-- Created with Inkscape (http://www.inkscape.org/) -->

<svg
   width="250mm"
   height="250mm"
   viewBox="0 0 250 250"
   version="1.1"
   id="svg1"
   xmlns="http://www.w3.org/2000/svg"
   xmlns:svg="http://www.w3.org/2000/svg">
  <defs
     id="defs1" />
  <g
     id="layer1">
    <path
       d="m 150.88649,68.569221 c 2.98576,1.19431 2.68719,2.98576 -0.89572,5.37436 -3.58291,1.79145 -6.86724,6.27009 -9.853,13.4359 -2.3886,7.16581 -3.5829,17.018809 -3.5829,29.558979 0.59715,12.54017 3.88148,22.99032 9.85299,31.35043 6.56866,8.36011 15.22735,14.92877 25.97607,19.70598 11.34587,4.18006 17.91453,4.77721 19.70598,1.79145 2.38861,-2.98575 4.77721,-9.55441 7.16582,-19.70598 2.98575,-10.15157 4.47863,-9.25584 4.47863,2.68718 0.59715,11.34587 2.38861,19.40741 5.37436,24.18462 3.58291,5.37436 2.3886,8.36011 -3.58291,8.95726 -5.37436,1.19431 -14.03305,0.59716 -25.97607,-1.79145 -11.34587,-2.38861 -21.49743,-7.16582 -30.4547,-14.33163 -8.95727,-7.76296 -15.22735,-16.42165 -18.81026,-25.97607 -3.58291,-10.15157 -4.77721,-22.39316 -3.5829,-36.72478 1.1943,-14.331629 2.09003,-22.990319 2.68718,-25.976079 0.59715,-3.5829 -2.38861,-4.47862 -8.95727,-2.68717 -6.56866,1.79145 -17.31738,4.18005 -32.246154,7.16581 -14.928776,2.3886 -25.080344,4.47863 -30.454703,6.27008 -4.777208,1.19431 -9.852992,1e-5 -15.227351,-3.5829 -5.374359,-4.18006 -4.777208,-5.97151 1.791453,-5.37436 6.568661,0.59715 16.421653,-0.29858 29.558976,-2.68718 13.137323,-2.38861 24.483194,-4.77721 34.037609,-7.16581 10.15157,-2.98576 17.0188,-5.37437 20.60171,-7.16582 3.58291,-2.3886 7.46439,-2.98575 11.64444,-1.79145 4.18006,1.1943 7.76297,2.68718 10.74872,4.47863 z"
       id="text27"
       style="font-size:229.306px;line-height:229.306px;font-family:KaiTi;-inkscape-font-specification:KaiTi;text-align:end;letter-spacing:0px;word-spacing:0px;direction:rtl;text-anchor:end;stroke-width:0.264583;stroke-linejoin:bevel;paint-order:stroke markers fill"
       aria-label="气" />
  </g>
</svg>
