<?xml version="1.0" encoding="UTF-8" standalone="no"?>
<!-- Created with Inkscape (http://www.inkscape.org/) -->

<svg
   width="250mm"
   height="250mm"
   viewBox="0 0 250 250"
   version="1.1"
   id="svg1"
   xmlns="http://www.w3.org/2000/svg"
   xmlns:svg="http://www.w3.org/2000/svg">
  <defs
     id="defs1" />
  <g
     id="layer1">
    <path
       d="m 195.17227,119.34039 c 4.77721,4.18006 3.5829,6.86724 -3.58291,8.06154 -6.56866,1.1943 -14.33162,5.07579 -23.28889,11.64445 -8.95726,6.56866 -11.94301,6.86723 -8.95726,0.89572 3.58291,-5.97151 5.97151,-10.74871 7.16581,-14.33162 1.79145,-4.18006 0,-6.27009 -5.37436,-6.27009 -5.37436,0 -19.70598,1.79146 -42.99487,5.37436 -23.288896,3.58291 -37.620519,6.56866 -42.994878,8.95727 -5.374359,1.79145 -11.34587,0.29857 -17.914531,-4.47863 -5.971511,-4.77721 -6.867237,-7.16582 -2.68718,-7.16582 h 16.123078 c 6.568662,-0.59715 18.213105,-1.79145 34.933331,-3.5829 17.31738,-2.38861 31.05186,-4.47864 41.20343,-6.27009 10.74871,-2.3886 17.61595,-4.18006 20.60171,-5.37436 2.98575,-1.79145 7.16581,-1.1943 12.54017,1.79145 5.37436,2.98576 10.45014,6.56867 15.22735,10.74872 z"
       style="font-size:229.306px;line-height:229.306px;font-family:KaiTi;-inkscape-font-specification:KaiTi;text-align:end;letter-spacing:0px;word-spacing:0px;direction:rtl;text-anchor:end;stroke-width:0.264583;stroke-linejoin:bevel;paint-order:stroke markers fill"
       id="path1-9" />
  </g>
</svg>
