<?xml version="1.0" encoding="UTF-8" standalone="no"?>
<!-- Created with Inkscape (http://www.inkscape.org/) -->

<svg
   width="250mm"
   height="250mm"
   viewBox="0 0 250 250"
   version="1.1"
   id="svg1"
   xmlns="http://www.w3.org/2000/svg"
   xmlns:svg="http://www.w3.org/2000/svg">
  <defs
     id="defs1" />
  <g
     id="layer1">
    <path
       d="m 132.20653,148.18936 c 19.70598,-10.15157 30.15612,-15.22735 31.35043,-15.22735 1.79145,0 -2.98576,5.07578 -14.33163,15.22735 -11.34587,10.15157 -19.10883,18.81026 -23.28889,25.97607 -3.58291,7.16581 -7.46439,7.16581 -11.64445,0 -3.5829,-7.16581 -3.88148,-12.2416 -0.89572,-15.22735 2.98575,-3.58291 5.07578,-8.36011 6.27008,-14.33162 1.79146,-6.56867 2.98576,-14.92878 3.58291,-25.08035 0.59715,-10.74871 0.89573,-19.4074 0.89573,-25.976066 0.59715,-6.568659 -1.49288,-8.658687 -6.27009,-6.270083 -4.18006,1.791453 -8.65869,3.881483 -13.4359,6.270083 -4.18005,2.38861 -8.957263,2.09003 -14.331622,-0.89572 -5.374359,-2.98576 -5.374359,-4.77721 0,-5.374363 5.97151,-1.194302 12.241592,-2.985755 18.810252,-5.374359 7.16582,-2.985755 11.94303,-5.971511 14.33163,-8.957266 2.98575,-2.985755 7.76296,-3.284331 14.33162,-0.895726 8.36012,3.582906 10.15157,7.464388 5.37436,11.644445 -4.18005,3.582906 -6.86723,10.450139 -8.06153,20.601705 -0.59716,9.55442 -1.49288,24.18462 -2.68718,43.8906 z"
       id="text20"
       style="font-size:229.306px;line-height:229.306px;font-family:KaiTi;-inkscape-font-specification:KaiTi;text-align:end;letter-spacing:0px;word-spacing:0px;direction:rtl;text-anchor:end;stroke-width:0.264583;stroke-linejoin:bevel;paint-order:stroke markers fill"
       aria-label="课" />
  </g>
</svg>
