<?xml version="1.0" encoding="UTF-8" standalone="no"?>
<!-- Created with Inkscape (http://www.inkscape.org/) -->

<svg
   width="250mm"
   height="250mm"
   viewBox="0 0 250 250"
   version="1.1"
   id="svg1"
   xmlns="http://www.w3.org/2000/svg"
   xmlns:svg="http://www.w3.org/2000/svg">
  <defs
     id="defs1" />
  <g
     id="layer1">
    <path
       d="m 62.349375,68.656637 c -4.532699,0.588342 -11.201882,1.316707 -12.376155,-1.086171 -2.985755,-5.374359 -3.664612,-7.382682 -0.678857,-7.382682 2.985755,0 5.971511,0.298576 8.957266,0.895727 3.582906,0 8.957265,-0.895727 16.123078,-2.68718 7.762968,-1.791453 14.630198,-3.881482 20.601708,-6.270086 5.971505,-2.388604 10.151565,-4.478633 12.540165,-6.270086 2.98576,-2.388604 7.16582,-2.687179 12.54018,-0.895726 5.37436,1.791453 9.85299,4.180057 13.4359,7.165812 3.5829,2.388604 2.98575,5.672935 -1.79146,9.852992 -4.18005,3.582907 -7.16581,10.450144 -8.95726,20.601711 -1.79145,9.554417 -3.28433,25.378912 -4.47864,47.473502 -1.1943,21.49744 -0.59715,36.72479 1.79146,45.68206 2.98575,8.95727 11.94302,13.73447 26.87179,14.33162 15.52593,0 25.6775,-0.89573 30.45471,-2.68718 5.37436,-1.79145 8.95727,-5.37436 10.74872,-10.74872 2.3886,-5.37436 4.7772,-12.2416 7.16581,-20.60171 2.3886,-8.36011 3.28433,-6.56866 2.68718,5.37436 -0.59715,11.34587 0.59715,20.30314 3.5829,26.8718 2.98576,5.97151 -0.29857,10.45014 -9.85299,13.4359 -8.95727,2.98575 -20.90029,4.47863 -35.82906,4.47863 -14.92877,-0.59715 -26.57322,-3.28433 -34.93334,-8.06154 -8.36011,-4.77721 -13.13732,-14.6302 -14.33162,-29.55898 -1.1943,-15.52593 -0.89573,-36.42621 0.89572,-62.70086 2.38861,-26.871789 3.28433,-41.800564 2.68718,-44.786319 -0.59715,-2.985755 -3.28432,-3.881482 -8.06153,-2.68718 -4.777205,1.194302 -19.489725,4.885946 -39.792855,10.260306 z"
       id="text22"
       style="font-size:229.306px;line-height:229.306px;font-family:KaiTi;-inkscape-font-specification:KaiTi;text-align:end;letter-spacing:0px;word-spacing:0px;direction:rtl;text-anchor:end;stroke-width:0.264583;stroke-linejoin:bevel;paint-order:stroke markers fill"
       aria-label="几" />
  </g>
</svg>
