<?xml version="1.0" encoding="UTF-8" standalone="no"?>
<!-- Created with Inkscape (http://www.inkscape.org/) -->

<svg
   width="250mm"
   height="250mm"
   viewBox="0 0 250 250"
   version="1.1"
   id="svg1"
   xmlns="http://www.w3.org/2000/svg"
   xmlns:svg="http://www.w3.org/2000/svg">
  <defs
     id="defs1" />
  <g
     id="layer1">
    <path
       id="text17"
       style="font-size:229.306px;line-height:229.306px;font-family:KaiTi;-inkscape-font-specification:KaiTi;text-align:end;letter-spacing:0px;word-spacing:0px;direction:rtl;text-anchor:end;stroke-width:0.264583;stroke-linejoin:bevel;paint-order:stroke markers fill"
       d="m 96.197627,34.903845 c -2.6242,-0.08397 -3.26492,1.721335 -1.92133,5.416207 2.38861,6.568661 2.68752,16.720514 0.89607,30.454988 -1.1943,13.734474 -3.88147,28.663336 -8.061526,44.78641 l -1.791622,8.06153 c -1.791453,7.16581 -3.582896,12.83854 -5.374349,17.0186 -1.791453,4.18005 -2.687175,6.86721 -2.687175,8.06152 0,1.1943 1.493042,2.38894 4.478797,3.58324 3.582906,0.59715 13.136915,5.67257 28.662848,15.22698 l 10.7487,7.16597 c 16.12308,10.15157 28.36478,20.60182 36.72489,31.35054 8.36011,10.74871 13.13763,11.94284 14.33194,3.58273 1.79145,-8.36011 -0.89571,-15.82429 -8.06152,-22.39295 -6.44507,-6.44507 -26.65789,-17.7209 -42.38966,-26.00668 l -15.06936,-6.66574 c -0.002,-7.9e-4 -0.003,-0.001 -0.005,-0.002 -7.326853,-2.87017 -12.058763,-4.51891 -14.193973,-4.94595 -2.3886,-1.1943 -3.88164,-2.38895 -4.47879,-3.58325 0,-1.5084 3.59873,-12.96614 7.58765,-24.74784 v -5.2e-4 c 4.2e-4,-10e-4 0.001,-0.002 0.002,-0.004 l 4.14135,-13.68651 0.003,-5.1e-4 c 7.912173,-29.666811 13.263643,-47.042431 16.034163,-52.029384 3.58291,-5.971511 0.29894,-11.64424 -9.85263,-17.018599 -4.44131,-2.351283 -7.682393,-3.559789 -9.723433,-3.625102 z" />
  </g>
</svg>
