<?xml version="1.0" encoding="UTF-8" standalone="no"?>
<!-- Created with Inkscape (http://www.inkscape.org/) -->

<svg
   width="250mm"
   height="250mm"
   viewBox="0 0 250 250"
   version="1.1"
   id="svg1"
   xmlns="http://www.w3.org/2000/svg"
   xmlns:svg="http://www.w3.org/2000/svg">
  <defs
     id="defs1" />
  <g
     id="layer1">
    <path
       id="text32"
       style="font-size:229.306px;line-height:229.306px;font-family:KaiTi;-inkscape-font-specification:KaiTi;text-align:end;letter-spacing:0px;word-spacing:0px;direction:rtl;text-anchor:end;stroke-width:0.264583;stroke-linejoin:bevel;paint-order:stroke markers fill"
       d="m 116.46345,38.845303 c -1.76346,0.02099 -3.14916,0.703314 -4.15686,2.046904 -1.79145,1.791452 -4.77753,3.284494 -8.95759,4.478796 -3.582909,1.194302 -9.554039,2.687343 -17.914149,4.478796 -8.36012,1.194302 -14.033362,1.492704 -17.019117,0.895553 -1.31793,3.591505 0.772209,5.980162 6.270417,7.165971 11.94302,-1.791453 21.49704,-2.986093 28.662849,-3.583244 7.16581,-1.194302 11.04761,-0.895384 11.64477,0.896069 0.59714,1.194302 -1.7e-4,11.047237 -1.79162,29.558919 -1.1943,18.511683 -2.98575,29.260343 -5.37435,32.246103 -1.79146,2.3886 -1.49306,5.97149 0.89555,10.74869 2.98575,4.18006 5.97183,5.07578 8.95759,2.68718 3.58291,-2.98576 10.45028,-5.0756 20.60185,-6.2699 10.15156,-1.79146 16.12269,-2.38877 17.91415,-1.79163 1.79145,0 2.38877,4.1802 1.79162,12.54032 0,8.36012 -1.49304,18.21306 -4.4788,29.55892 -2.3886,11.34588 -5.07577,20.00469 -8.06152,25.9762 l -3.58273,6.2699 c 1.19431,3.5829 2.38843,7.16579 3.58273,10.74869 1.1943,4.18006 3.28466,4.77738 6.27042,1.79163 3.5829,-2.38861 6.56847,-6.56882 8.95707,-12.54032 2.98576,-5.97152 5.37452,-13.13729 7.16597,-21.4974 1.79146,-8.95727 3.28398,-18.21288 4.47828,-27.7673 1.79146,-9.55442 4.18022,-15.82498 7.16597,-18.81073 3.58291,-2.98576 3.28451,-6.26973 -0.89555,-9.85263 -3.5829,-4.18006 -8.06151,-7.16614 -13.43587,-8.95759 -4.77721,-2.3886 -9.25582,-2.08969 -13.43587,0.89606 -3.58291,2.98576 -13.73476,5.67292 -30.45499,8.06153 1.79145,-16.12308 3.28449,-28.663184 4.4788,-37.62045 1.1943,-8.957266 2.98574,-15.227315 5.37434,-18.810221 2.3886,-4.180057 4.18005,-7.166139 5.37435,-8.957593 1.79146,-1.791452 0.59733,-3.881296 -3.58272,-6.269901 -3.58291,-2.985755 -7.46471,-5.374518 -11.64477,-7.165971 -1.82877,-0.783761 -3.42864,-1.167679 -4.80022,-1.151351 z" />
  </g>
</svg>
