<?xml version="1.0" encoding="UTF-8" standalone="no"?>
<!-- Created with Inkscape (http://www.inkscape.org/) -->

<svg
   width="250mm"
   height="250mm"
   viewBox="0 0 250 250"
   version="1.1"
   id="svg1"
   xmlns="http://www.w3.org/2000/svg"
   xmlns:svg="http://www.w3.org/2000/svg">
  <defs
     id="defs1" />
  <g
     id="layer1">
    <path
       d="m 118.28204,85.647155 -1.79145,11.644446 c -1.79145,5.971509 -3.88148,15.525929 -6.27008,28.663249 l -1.79146,8.95726 c -4.18005,11.94303 -6.86723,19.70599 -8.06154,23.28889 -0.597145,3.58291 2.09003,5.07579 8.06154,4.47864 5.97151,-1.19431 12.54018,-2.38861 19.70599,-3.58291 7.16581,-1.79145 12.54017,-3.58291 16.12308,-5.37436 4.18005,-1.79145 8.36011,-1.1943 12.54017,1.79146 4.18005,2.98575 7.76296,6.56866 10.74872,10.74871 2.98575,3.58291 2.3886,5.97151 -1.79146,7.16582 -3.58291,1.1943 -9.55442,5.37436 -17.91453,12.54017 -7.76296,6.56866 -16.72023,14.6302 -26.8718,24.18462 -1.90698,0.74649 -3.8743,-0.54043 -4.34053,-3.55529 3.58291,-4.18006 7.92344,-9.58204 13.2978,-16.1507 5.37436,-7.16581 9.25584,-13.13732 11.64445,-17.91453 2.98575,-5.37436 0.89572,-7.76296 -6.27009,-7.16581 -7.16581,0.59715 -15.22735,1.79145 -24.18462,3.5829 -8.95727,1.79145 -15.227345,4.47863 -18.810255,8.06154 -2.985752,3.58291 -6.270081,2.98576 -9.852988,-1.79145 -2.985755,-5.37436 -2.388603,-9.25584 1.791454,-11.64445 4.180056,-2.98575 8.061534,-12.24159 11.644444,-27.76752 l 1.79145,-8.95726 c 1.19431,-5.37436 2.985755,-14.92878 5.374355,-28.663253 l 1.79146,-10.748719 c 3.58291,-22.094588 3.88148,-35.829062 0.89572,-41.203421 -2.98575,-5.374359 -2.09003,-7.464388 2.68718,-6.270086 5.37436,1.194302 10.45014,3.284331 15.22735,6.270086 5.37436,2.388604 6.56866,5.374359 3.58291,8.957265 -2.98575,2.985755 -5.97151,13.137323 -8.95727,30.454703 z"
       id="text29"
       style="font-size:229.306px;line-height:229.306px;font-family:KaiTi;-inkscape-font-specification:KaiTi;text-align:end;letter-spacing:0px;word-spacing:0px;direction:rtl;text-anchor:end;stroke-width:0.264583;stroke-linejoin:bevel;paint-order:stroke markers fill"
       aria-label="专" />
  </g>
</svg>
