<?xml version="1.0" encoding="UTF-8" standalone="no"?>
<!-- Created with Inkscape (http://www.inkscape.org/) -->

<svg
   width="250mm"
   height="250mm"
   viewBox="0 0 250 250"
   version="1.1"
   id="svg1"
   xmlns="http://www.w3.org/2000/svg"
   xmlns:svg="http://www.w3.org/2000/svg">
  <defs
     id="defs1" />
  <g
     id="layer1">
    <path
       d="m 106.45392,69.994401 -4.00384,1.293994 c -7.165805,1.791453 -11.943015,2.68718 -14.331625,2.68718 -2.3886,0 -5.37435,-1.194302 -8.95726,-3.582906 -3.58291,-2.985755 -2.38861,-4.478633 3.5829,-4.478633 5.97151,0 12.54018,-0.597151 19.705985,-1.791453 7.16581,-1.791453 14.33163,-3.881482 21.49744,-6.270086 7.16581,-2.388604 12.2416,-4.777208 15.22735,-7.165812 2.98575,-2.985755 6.56866,-3.881482 10.74872,-2.68718 4.77721,1.194302 8.95726,3.284331 12.54017,6.270086 4.18005,2.388604 3.88148,5.075784 -0.89573,8.061539 -4.18005,2.985755 -8.06153,8.65869 -11.64444,17.018805 -2.98576,7.762964 -6.27009,14.928776 -9.853,21.497435 -2.98575,5.97151 -1.1943,7.76297 5.37436,5.37436 6.56867,-2.38861 11.34588,-2.98576 14.33163,-1.79145 3.58291,1.1943 6.86724,3.28433 9.85299,6.27008 3.58291,2.38861 4.18006,5.67294 1.79145,9.853 -2.3886,3.5829 -4.18005,10.45014 -5.37435,20.60171 -1.19431,9.55441 -3.28434,20.00456 -6.27009,31.35043 -2.98575,10.74871 -8.36011,19.10883 -16.12308,25.08034 -7.76296,6.56866 -12.54017,6.56866 -14.33162,0 -1.79145,-6.56866 -5.37436,-12.54017 -10.74872,-17.91453 -4.77721,-5.37436 -4.18006,-6.56866 1.79145,-3.58291 5.97151,2.38861 11.0473,3.88148 15.22735,4.47863 4.18006,0 8.06154,-4.77721 11.64445,-14.33162 3.58291,-9.55441 5.67293,-19.10883 6.27008,-28.66325 1.19431,-10.15157 1.49288,-17.0188 0.89573,-20.60171 0,-4.18006 -2.09003,-6.27009 -6.27009,-6.27009 -4.18005,0 -8.36011,0.89573 -12.54017,2.68718 -3.58291,1.19431 -6.27009,0.59716 -8.06154,-1.79145 -1.1943,-2.98575 -0.59715,-5.07578 1.79146,-6.27009 2.98575,-1.79145 5.97151,-8.360109 8.95726,-19.70598 3.58291,-11.345869 5.37436,-18.213106 5.37436,-20.60171 0.59715,-2.985755 0.59715,-4.777209 0,-5.37436 -0.59715,-1.194302 -4.18006,-0.597151 -10.74872,1.791453 -6.56866,1.791453 -15.10499,4.976092 -26.45086,8.558998 z"
       id="text26"
       style="font-size:229.306px;line-height:229.306px;font-family:KaiTi;-inkscape-font-specification:KaiTi;text-align:end;letter-spacing:0px;word-spacing:0px;direction:rtl;text-anchor:end;stroke-width:0.264583;stroke-linejoin:bevel;paint-order:stroke markers fill"
       aria-label="奶" />
  </g>
</svg>
