<?xml version="1.0" encoding="UTF-8" standalone="no"?>
<!-- Created with Inkscape (http://www.inkscape.org/) -->

<svg
   width="250mm"
   height="250mm"
   viewBox="0 0 250 250"
   version="1.1"
   id="svg1"
   xmlns="http://www.w3.org/2000/svg"
   xmlns:svg="http://www.w3.org/2000/svg">
  <defs
     id="defs1" />
  <g
     id="layer1">
    <path
       d="m 121.54833,84.200347 c 7.16581,7.16581 9.73455,13.18666 6.15164,15.57527 -3.58291,2.388613 -8.65869,7.165823 -15.22735,14.331633 -5.97151,7.16581 -11.64445,14.03304 -17.018801,20.60171 -5.374359,6.56866 -6.270086,9.55441 -2.68718,8.95726 3.582906,-0.59715 10.450141,-1.49287 20.601711,-2.68718 10.74871,-1.1943 24.48319,-2.98575 41.20342,-5.37436 -5.97151,-7.16581 -10.15157,-12.54017 -12.54017,-16.12308 -1.79145,-4.18005 0.89573,-4.47863 8.06154,-0.89572 7.76296,3.58291 14.6302,7.76296 20.60171,12.54017 6.56866,4.18006 11.04729,8.95727 13.4359,14.33162 2.98575,4.77721 3.88148,9.853 2.68717,15.22736 -0.59715,5.97151 -4.18005,5.67293 -10.74871,-0.89573 -6.56867,-6.56866 -12.54018,-13.13732 -17.91454,-19.70598 -22.69173,4.18005 -40.60626,8.36011 -53.74359,12.54017 -13.137319,3.58291 -22.691735,7.16581 -28.663246,10.74872 -5.374359,4.18005 -9.255841,2.98575 -11.644445,-3.58291 -2.388604,-5.97151 -1.791453,-9.853 1.791453,-11.64445 4.180057,-1.79145 8.360115,-4.47863 12.540172,-8.06153 4.777208,-4.18006 11.345869,-11.64445 19.705984,-22.39317 8.360112,-11.34587 13.734472,-21.796013 16.123072,-31.350433 3.4196,-1.7362 2.4151,-2.23344 7.28426,-2.13937 z"
       id="text16"
       style="font-size:229.306px;line-height:229.306px;font-family:KaiTi;-inkscape-font-specification:KaiTi;text-align:end;letter-spacing:0px;word-spacing:0px;direction:rtl;text-anchor:end;stroke-width:0.264583;stroke-linejoin:bevel;paint-order:stroke markers fill"
       aria-label="去" />
  </g>
</svg>
